<?xml version="1.0" encoding="utf-8"?>
<!-- Generator: Adobe Illustrator 16.0.0, SVG Export Plug-In . SVG Version: 6.00 Build 0)  -->
<!DOCTYPE svg PUBLIC "-//W3C//DTD SVG 1.1//EN" "http://www.w3.org/Graphics/SVG/1.1/DTD/svg11.dtd">
<svg version="1.1" id="レイヤー_1" xmlns="http://www.w3.org/2000/svg" xmlns:xlink="http://www.w3.org/1999/xlink" x="0px"
	 y="0px" width="960px" height="560px" viewBox="0 0 960 560" enable-background="new 0 0 960 560" xml:space="preserve">
<text transform="matrix(1 0 0 1 398.9004 298.0176)" fill="#231815" font-family="'Arial-Black'" font-size="37.1748">UNiCORN</text>
<path fill="#231815" stroke="#231815" stroke-miterlimit="10" d="M353.214,285.458c0,5.971,2.101,11.383,5.505,15.348h27.798
	c3.404-3.965,5.505-9.377,5.505-15.348c0-12.153-8.688-22.005-19.404-22.005C361.901,263.453,353.214,273.305,353.214,285.458z"/>
<path fill="#FFFFFF" stroke="#231815" stroke-width="0.5" stroke-miterlimit="10" d="M387.008,259.926
	c0.111-4.356-2.054-9.384-2.01-8.486c0.28,5.723-8.485,11.593-11.07,13.196c-0.378-0.146-0.763-0.27-1.159-0.353
	c-3.92-0.822-11.337,3.239-11.337,18.987c0,8.266,3.436,17.535,3.436,17.535l15.774-0.111c-5.585-7.26-5.272-17.706-4.579-17.089
	c0.431,2.575,9.272,5.341,9.438,3.26c0-3.721-1.955-10.099-4.754-15.261C382.568,270.007,386.911,263.708,387.008,259.926z"/>
<path fill="#231815" d="M374.157,274.382c0.281,0.875,1.523,2.44,2.863,3.111c1.34,0.67-0.645,0.852-1.044,0.643
	s-2.84-1.65-2.713-3.195C373.608,273.068,373.876,273.507,374.157,274.382z"/>
<polygon fill="#FFFFFF" points="365.02,300.506 365.371,301.526 380.977,301.526 380.131,300.447 366.592,299.484 "/>
<path fill="#FFFFFF" d="M376.666,284.248c-0.484-0.438-1.141-1.234-1.038-1.602c0.077-0.276,1.46,0.055,1.46,0.055
	S377.15,284.686,376.666,284.248z"/>
</svg>
